<?xml version="1.0" encoding="utf-8"?>
<!-- Svg Vector Icons : http://www.onlinewebfonts.com/icon -->
<!DOCTYPE svg PUBLIC "-//W3C//DTD SVG 1.1//EN" "http://www.w3.org/Graphics/SVG/1.1/DTD/svg11.dtd">
<svg version="1.1" xmlns="http://www.w3.org/2000/svg" xmlns:xlink="http://www.w3.org/1999/xlink" x="0px" y="0px" viewBox="0 0 1000 1000" enable-background="new 0 0 1000 1000" xml:space="preserve">
<metadata> Svg Vector Icons : http://www.onlinewebfonts.com/icon </metadata>
<g><path d="M132.5,622.5C65,622.5,10,567.5,10,500s55-122.5,122.5-122.5S255,432.5,255,500S200,622.5,132.5,622.5z M132.5,412.5C84.3,412.5,45,451.8,45,500s39.3,87.5,87.5,87.5S220,548.2,220,500S180.7,412.5,132.5,412.5z"/><path d="M500,622.5c-67.5,0-122.5-55-122.5-122.5s55-122.5,122.5-122.5s122.5,55,122.5,122.5S567.5,622.5,500,622.5z M500,412.5c-48.2,0-87.5,39.3-87.5,87.5s39.3,87.5,87.5,87.5s87.5-39.3,87.5-87.5S548.2,412.5,500,412.5z"/><path d="M867.5,622.5C800,622.5,745,567.5,745,500s55-122.5,122.5-122.5S990,432.5,990,500S935,622.5,867.5,622.5z M867.5,412.5c-48.2,0-87.5,39.3-87.5,87.5s39.3,87.5,87.5,87.5S955,548.2,955,500S915.7,412.5,867.5,412.5z"/></g>
</svg>