<?xml version="1.0" encoding="utf-8"?>
<!-- Svg Vector Icons : http://www.onlinewebfonts.com/icon -->
<!DOCTYPE svg PUBLIC "-//W3C//DTD SVG 1.1//EN" "http://www.w3.org/Graphics/SVG/1.1/DTD/svg11.dtd">
<svg version="1.1" xmlns="http://www.w3.org/2000/svg" xmlns:xlink="http://www.w3.org/1999/xlink" x="0px" y="0px" viewBox="0 0 1000 1000" enable-background="new 0 0 1000 1000" xml:space="preserve">
<metadata> Svg Vector Icons : http://www.onlinewebfonts.com/icon </metadata>
<g><g transform="translate(0.000000,512.000000) scale(0.100000,-0.100000)"><path d="M2004.5,4998.9c-292.9-42.1-681.5-193.4-930.4-363.7c-155.1-105.3-413.5-354.2-536-515c-195.3-256.5-371.4-685.4-417.3-1022.3c-116.8-830.9,268-1677,974.4-2146.1c407.8-271.9,836.6-390.5,1338.2-367.6c1135.3,49.8,2052.3,966.8,2102,2102c28.7,643.2-195.3,1229-643.2,1677C3398.2,4857.3,2686,5096.6,2004.5,4998.9z M2569.2,4386.3c310.1-49.8,616.4-199.1,846.2-415.4c222.1-210.6,348.4-409.7,448-712.2c47.9-147.4,53.6-187.6,53.6-449.9c0-319.7-21.1-434.6-130.2-672c-166.6-358-446.1-637.5-804.1-802.1c-237.4-111-352.3-132.1-672-132.1c-262.3,0-302.5,5.7-449.9,53.6c-302.5,99.6-501.6,225.9-712.2,448c-501.6,534.1-576.2,1363.1-176.1,1968C1326.8,4206.3,1950.9,4485.9,2569.2,4386.3z"/><path d="M7364.8,4998.9c-771.5-111-1466.5-660.5-1751.7-1384.1c-116.8-298.7-141.7-444.2-141.7-825.1c0-310.1,5.7-363.7,51.7-532.2c107.2-400.1,304.4-746.6,587.7-1028C7194.5,145.9,9017,459.8,9681.3,1845.9c576.2,1204.2-36.4,2632.3-1311.4,3059.2C8069.3,5006.6,7675,5043,7364.8,4998.9z M8101.9,4349.9c903.6-256.5,1397.5-1194.6,1093.1-2081c-132.1-381-436.5-731.3-796.4-911.3c-298.6-149.3-702.6-204.8-1024.2-139.8c-641.3,130.2-1144.8,633.7-1275,1275c-38.3,191.4-28.7,534.1,23,717.9c120.6,446.1,467.1,857.7,874.9,1043.4c130.2,59.4,291,109.1,430.7,134C7577.3,4416.9,7941.1,4395.9,8101.9,4349.9z"/><path d="M2042.8-351.9c-767.7-112.9-1393.7-568.6-1723-1255.8C-254.5-2810,356.2-4240.1,1627.3-4667c1282.7-428.8,2668.7,411.6,2885,1751.7c185.7,1137.1-526.5,2216.9-1650.2,2509.8c-151.2,40.2-241.2,51.7-474.8,55.5C2230.4-346.1,2075.3-348,2042.8-351.9z M2731.9-1000.9c137.8-38.3,388.6-155.1,505.4-233.6c227.8-157,461.4-448,572.4-717.9c172.3-413.5,153.2-924.7-47.9-1326.7c-285.2-566.7-903.6-922.8-1537.3-884.5c-813.6,51.7-1455,693-1506.7,1506.6C668.2-1835.6,1263.6-1094.7,2081-966.4C2199.7-947.3,2619-970.2,2731.9-1000.9z"/><path d="M7301.7-367.2c-469-90-863.4-296.7-1190.8-624.1c-344.6-344.6-560.9-777.3-633.7-1263.5c-30.6-212.5-11.5-612.6,40.2-819.4C5827.6-4337.7,7152.4-5076.7,8373.7-4667c670,224,1188.8,744.7,1412.8,1416.7c409.7,1217.6-329.3,2540.4-1592.8,2854.4C7985.1-344.2,7504.6-328.9,7301.7-367.2z M8092.3-1000.9c733.2-202.9,1236.7-901.7,1190.8-1656c-19.1-304.4-109.1-562.8-281.4-811.7c-415.4-601.1-1158.2-844.2-1851.2-606.9c-403.9,139.8-752.4,455.6-932.3,848.1c-111,237.4-134,356.1-134,666.2c-1.9,331.2,23,436.5,160.8,717.9c218.3,440.3,616.4,750.4,1102.7,859.6C7516.1-945.4,7925.8-954.9,8092.3-1000.9z"/></g></g>
</svg>