<svg xmlns="http://www.w3.org/2000/svg" width="72" height="72" viewBox="0 0 72 72"><path d="M35.649 45.188c-5.066 0-9.188-4.121-9.188-9.188 0-5.066 4.121-9.188 9.188-9.188 5.065 0 9.188 4.122 9.188 9.188 0 5.067-4.122 9.188-9.188 9.188zm0-14.376c-2.86 0-5.188 2.327-5.188 5.188s2.327 5.188 5.188 5.188 5.188-2.327 5.188-5.188-2.327-5.188-5.188-5.188z"/><path d="M35.913 68.5h-.193c-3.65 0-6.958-2.748-8.125-6.572a26.936 26.936 0 0 1-4.536-1.881c-1.498.842-3.155 1.297-4.777 1.297-2.091 0-4.015-.773-5.418-2.177l-.172-.182c-2.541-2.54-2.924-6.823-1.034-10.357-.752-1.44-1.274-2.976-1.768-4.585-3.83-1.157-6.39-4.326-6.39-7.92v-.193c0-3.607 2.558-6.795 6.384-7.966.519-1.718 1.103-3.29 1.876-4.755-1.943-3.501-1.652-7.604.887-10.144l.126-.139c1.462-1.462 3.494-2.269 5.731-2.269a9.97 9.97 0 0 1 4.717 1.211 26.967 26.967 0 0 1 4.236-1.753C28.459 6.262 31.806 3.5 35.72 3.5h.193c3.859 0 7.03 2.714 7.96 6.625a27.035 27.035 0 0 1 4.288 1.783 9.117 9.117 0 0 1 4.597-1.262c2.262 0 4.368.86 5.931 2.422l.103.095c2.772 2.771 3.104 6.936 1.002 10.354.73 1.394 1.436 2.813 1.897 4.242 3.905.924 6.81 4.232 6.81 8.171v.193c0 3.918-2.906 7.207-6.815 8.121-.438 1.333-1.068 2.691-1.781 4.062 2.063 3.443 1.637 7.79-1.157 10.585l-.146.213C57.103 60.6 55.098 61.5 52.983 61.5h.002c-1.601 0-3.214-.549-4.656-1.42-1.47.779-3.003 1.38-4.583 1.873-1.083 3.885-4.215 6.547-7.833 6.547zm-12.93-12.781c.349 0 .697.09 1.01.273a23.03 23.03 0 0 0 5.78 2.4c.76.198 1.333.824 1.465 1.598.431 2.529 2.399 4.51 4.481 4.51h.193c2.282 0 3.818-2.252 4.155-4.477a1.997 1.997 0 0 1 1.47-1.635 23.038 23.038 0 0 0 5.891-2.465 2 2 0 0 1 2.282.169c.989.806 2.153 1.249 3.277 1.25a3.837 3.837 0 0 0 2.768-1.145l.133-.134c1.654-1.654 1.683-4.389.066-6.361a2 2 0 0 1-.189-2.258c1.075-1.887 1.856-3.732 2.323-5.488.217-.817 1.029-1.41 1.872-1.48 2.569-.213 4.539-2.045 4.539-4.354v-.193c0-2.336-1.971-4.189-4.542-4.408-.841-.071-1.6-.663-1.816-1.479-.504-1.899-1.333-3.802-2.41-5.654a1.999 1.999 0 0 1 .174-2.279c1.648-1.997 1.688-4.496.106-6.078l-.104-.095a4.389 4.389 0 0 0-3.147-1.292c-1.151 0-2.298.414-3.229 1.164a2 2 0 0 1-2.261.172 23.015 23.015 0 0 0-5.671-2.355 2 2 0 0 1-1.479-1.742c-.249-2.58-1.978-4.383-4.207-4.383h-.193c-2.313 0-4.264 1.895-4.535 4.407a2.002 2.002 0 0 1-1.477 1.719 22.995 22.995 0 0 0-5.562 2.291 1.996 1.996 0 0 1-2.165-.112c-1.011-.729-2.28-1.146-3.482-1.146-1.169 0-2.203.391-2.912 1.1l-.14.139c-1.6 1.6-1.107 4.267.206 6.074.471.647.511 1.513.101 2.2-1.046 1.755-1.841 3.707-2.431 5.965-.197.755-.71 1.326-1.479 1.463-2.536.452-4.344 2.314-4.344 4.331v.193c0 1.996 1.806 3.835 4.34 4.279.771.135 1.339.707 1.537 1.465.547 2.094 1.319 4.047 2.348 5.805a2 2 0 0 1-.109 2.168c-1.491 2.098-1.515 4.893-.045 6.362l.168.181c.787.786 1.821.961 2.544.961 1.171 0 2.452-.451 3.515-1.235.351-.26.767-.391 1.185-.391z"/><path d="M52.704 30.489a1 1 0 01-.934-.642c-2.54-6.612-9.007-11.054-16.092-11.055a1 1 0 110-2c7.906 0 15.124 4.958 17.959 12.338a1.001 1.001 0 01-.933 1.359zM18.936 44.918a1 1 0 01-.857-.484c-.199-.33-.288-.574-.448-1.02-.077-.211-.175-.483-.318-.857a.999.999 0 111.867-.717c.149.39.252.674.331.894.146.401.188.513.281.667a1 1 0 01-.856 1.517zM35.271 54.895a19.202 19.202 0 01-14.711-6.843.999.999 0 111.529-1.289 17.21 17.21 0 0013.182 6.132 1 1 0 010 2z"/></svg>